<?xml version="1.0" encoding="utf-8"?>
<!-- Generator: Adobe Illustrator 25.2.1, SVG Export Plug-In . SVG Version: 6.00 Build 0)  -->
<svg version="1.1" id="Layer_1" xmlns="http://www.w3.org/2000/svg" xmlns:xlink="http://www.w3.org/1999/xlink" x="0px" y="0px"
	 viewBox="0 0 128 128" style="enable-background:new 0 0 128 128;" xml:space="preserve">
<style type="text/css">
	.st0{fill:none;}
	.st1{fill:#898989;}
</style>
<g>
	<g>
		<rect class="st0" width="128" height="128"/>
	</g>
	<g>
		<path class="st1" d="M115.14,74.79h-14.61V60.18h-7.31v32.87H34.78V34.61h32.87V27.3H53.04V12.69h-7.31V27.3H34.78
			c-1.94,0-3.79,0.77-5.16,2.14c-1.37,1.37-2.14,3.23-2.14,5.16v10.96H12.86v7.31h14.61v21.92H12.86v7.31h14.61v10.96
			c0,1.94,0.77,3.79,2.14,5.16c1.37,1.37,3.23,2.14,5.16,2.14h10.96v14.61h7.31v-14.61h21.92v14.61h7.31v-14.61h10.96
			c1.94,0,3.79-0.77,5.16-2.14s2.14-3.23,2.14-5.16V82.09h14.61V74.79z"/>
		<path class="st1" d="M100.53,12.69c-3.87,0-7.59,1.54-10.33,4.28c-2.74,2.74-4.28,6.45-4.28,10.33c0.01,2.6,0.73,5.15,2.07,7.38
			L77.1,45.57H45.74V82.1h36.53V50.73l10.88-10.88c2.23,1.34,4.78,2.05,7.38,2.07c3.87,0,7.59-1.54,10.33-4.28
			c2.74-2.74,4.28-6.46,4.28-10.33s-1.54-7.59-4.28-10.33C108.12,14.23,104.4,12.69,100.53,12.69z M74.96,74.79H53.04V52.87h21.92
			V74.79z M100.53,34.61c-1.44,0-2.86-0.43-4.06-1.23s-2.14-1.94-2.69-3.28c-0.55-1.33-0.7-2.8-0.42-4.22s0.98-2.72,2-3.74
			s2.32-1.72,3.74-2s2.89-0.14,4.22,0.42c1.33,0.55,2.48,1.49,3.28,2.69c0.8,1.2,1.23,2.61,1.23,4.06c0,1.94-0.77,3.79-2.14,5.16
			S102.46,34.61,100.53,34.61z"/>
	</g>
</g>
</svg>
