<?xml version="1.0" encoding="utf-8"?>
<!-- Generator: Adobe Illustrator 25.2.1, SVG Export Plug-In . SVG Version: 6.00 Build 0)  -->
<svg version="1.1" id="Layer_1" xmlns="http://www.w3.org/2000/svg" xmlns:xlink="http://www.w3.org/1999/xlink" x="0px" y="0px"
	 viewBox="0 0 128 128" style="enable-background:new 0 0 128 128;" xml:space="preserve">
<style type="text/css">
	.st0{fill:none;}
	.st1{fill:#898989;}
</style>
<g>
	<g>
		<rect class="st0" width="128" height="128"/>
	</g>
	<g>
		<path class="st1" d="M104.9,94.26h-6.33v-6.33h3.17V75.27H89.07v3.17h-6.33V72.1c0-0.84,0.33-1.64,0.93-2.24
			c0.59-0.59,1.4-0.93,2.24-0.93h18.99c0.84,0,1.64,0.33,2.24,0.93c0.59,0.59,0.93,1.4,0.93,2.24v19c0,0.84-0.33,1.64-0.93,2.24
			C106.54,93.93,105.74,94.26,104.9,94.26z"/>
		<path class="st1" d="M89.07,110.09H70.08c-0.84,0-1.64-0.33-2.24-0.93c-0.59-0.59-0.93-1.4-0.93-2.24V87.93
			c0-0.84,0.33-1.64,0.93-2.24c0.59-0.59,1.4-0.93,2.24-0.93h18.99c0.84,0,1.64,0.33,2.24,0.93c0.59,0.59,0.93,1.4,0.93,2.24v18.99
			c0,0.84-0.33,1.64-0.93,2.24S89.91,110.09,89.07,110.09z M73.25,103.76h12.66V91.1H73.25V103.76z"/>
		<path class="st1" d="M60.59,77.99c-2.29-0.6-4.36-1.82-5.99-3.54s-2.74-3.85-3.21-6.17c-0.47-2.32-0.29-4.72,0.54-6.93
			c0.82-2.22,2.25-4.15,4.12-5.6c1.87-1.44,4.11-2.33,6.46-2.57c2.35-0.24,4.72,0.19,6.84,1.24c2.12,1.04,3.91,2.66,5.15,4.67
			c1.25,2.01,1.91,4.32,1.9,6.69h6.33c0-3.62-1.03-7.17-2.97-10.22c-1.95-3.05-4.72-5.49-8.01-7.02c-3.28-1.53-6.94-2.08-10.53-1.6
			c-3.59,0.48-6.97,1.98-9.73,4.31c-2.77,2.34-4.81,5.42-5.88,8.87c-1.07,3.46-1.14,7.15-0.18,10.65c0.95,3.49,2.89,6.64,5.57,9.07
			c2.69,2.43,6.01,4.04,9.58,4.65L60.59,77.99L60.59,77.99z"/>
		<path class="st1" d="M104.55,58.02l-7.31,6.43l-4.49-4.49l7.63-6.71L92.9,40.33L82.02,44c-2.55-2.12-5.44-3.8-8.55-4.97
			l-2.25-11.24H56.28l-2.25,11.24C50.9,40.16,48,41.84,45.46,44L34.6,40.33l-7.47,12.91l8.61,7.56c-0.59,3.28-0.59,6.63,0,9.91
			l-8.61,7.6l7.47,12.91l10.89-3.67c2.55,2.12,5.44,3.8,8.55,4.97l2.25,11.24h4.3v6.33h-4.3c-1.46,0-2.88-0.51-4.01-1.44
			c-1.13-0.93-1.91-2.22-2.19-3.66l-1.61-7.98c-1.43-0.7-2.82-1.49-4.15-2.37l-7.69,2.6c-0.65,0.21-1.34,0.32-2.03,0.32
			c-1.11,0.01-2.21-0.28-3.17-0.84c-0.96-0.56-1.76-1.36-2.31-2.33l-7.47-12.91c-0.74-1.27-1.01-2.76-0.78-4.21
			c0.24-1.45,0.97-2.77,2.07-3.74l6.08-5.32c-0.06-0.82-0.09-1.61-0.09-2.44c0-0.82,0.06-1.61,0.13-2.41l-6.11-5.35
			c-1.1-0.97-1.84-2.29-2.07-3.74c-0.24-1.45,0.04-2.94,0.78-4.21l7.47-12.91c0.55-0.97,1.34-1.77,2.31-2.33
			c0.96-0.56,2.06-0.85,3.17-0.84c0.69,0,1.37,0.1,2.03,0.32l7.66,2.6c1.34-0.88,2.73-1.68,4.18-2.37l1.61-7.98
			c0.29-1.44,1.06-2.73,2.19-3.66c1.13-0.93,2.55-1.44,4.01-1.44h14.94c1.46,0,2.88,0.51,4.01,1.44c1.13,0.93,1.91,2.22,2.19,3.66
			l1.61,7.98c1.43,0.7,2.82,1.49,4.15,2.37l7.69-2.6c0.65-0.21,1.34-0.32,2.03-0.32c1.11-0.01,2.21,0.28,3.17,0.84
			s1.76,1.36,2.31,2.33l7.47,12.91c0.74,1.27,1.01,2.76,0.78,4.21S105.66,57.05,104.55,58.02L104.55,58.02z"/>
	</g>
</g>
</svg>
