<svg id="Capa_1" enable-background="new 0 0 512 512" height="512" viewBox="0 0 512 512" width="512" xmlns="http://www.w3.org/2000/svg"><g><path fill="#fff" d="m128.771 390.708c1.406 1.407 3.314 2.197 5.303 2.197h243.853c1.989 0 3.897-.79 5.303-2.197l7.478-7.478c1.407-1.406 2.197-3.314 2.197-5.303v-243.853c0-1.989-.79-3.897-2.197-5.303l-7.478-7.478c-1.406-1.407-3.314-2.197-5.303-2.197h-178.57c-4.142 0-7.5 3.358-7.5 7.5s3.358 7.5 7.5 7.5h175.463l3.084 3.084v237.64l-3.084 3.084h-237.64l-3.084-3.084v-237.64l3.084-3.084h27.177c4.142 0 7.5-3.358 7.5-7.5s-3.358-7.5-7.5-7.5h-30.284c-1.989 0-3.897.79-5.303 2.197l-7.478 7.478c-1.407 1.406-2.197 3.314-2.197 5.303v243.853c0 1.989.79 3.897 2.197 5.303z"/><circle cx="112.657" cy="399.343" r="7.5"/><circle cx="399.343" cy="112.657" r="7.5"/><path fill="#fff" d="m167.149 367.904c12.712 0 23.054-10.342 23.054-23.054s-10.342-23.054-23.054-23.054-23.054 10.342-23.054 23.054 10.343 23.054 23.054 23.054zm0-31.107c4.441 0 8.054 3.613 8.054 8.054s-3.613 8.054-8.054 8.054-8.054-3.613-8.054-8.054 3.613-8.054 8.054-8.054z"/><path fill="#fff" d="m223.139 175.096c4.142 0 7.5-3.358 7.5-7.5s-3.358-7.5-7.5-7.5h-17.327c-4.142 0-7.5 3.358-7.5 7.5s3.358 7.5 7.5 7.5z"/><path fill="#fff" d="m306.188 175.096c4.142 0 7.5-3.358 7.5-7.5s-3.358-7.5-7.5-7.5h-48.049c-4.142 0-7.5 3.358-7.5 7.5s3.358 7.5 7.5 7.5z"/><path fill="#fff" d="m503.973 124.242-22.656-1.433-9.448-4.567c-1.157-.561-2.45-.858-3.737-.858h-25.227v-3.264c0-2.492-.971-4.834-2.733-6.597l-35.695-35.695c-1.762-1.762-4.105-2.733-6.597-2.733h-3.264v-25.226c0-1.288-.297-2.58-.854-3.729l-4.571-9.457-1.433-22.656c-.284-4.501-4.041-8.027-8.55-8.027h-22.994c-4.51 0-8.267 3.526-8.551 8.027l-1.433 22.657-4.576 9.466c-.556 1.153-.849 2.439-.849 3.719v25.227h-20.662v-25.227c0-1.288-.297-2.58-.854-3.729l-4.57-9.456-1.433-22.657c-.286-4.501-4.042-8.027-8.552-8.027h-22.994c-4.51 0-8.267 3.526-8.551 8.027l-1.433 22.657-4.566 9.447c-.562 1.158-.858 2.45-.858 3.737v25.227h-20.661v-25.226c0-1.287-.297-2.579-.854-3.729l-4.57-9.456-1.433-22.657c-.287-4.501-4.043-8.027-8.554-8.027h-22.994c-4.51 0-8.267 3.526-8.551 8.028l-1.433 22.655-4.567 9.448c-.561 1.157-.858 2.45-.858 3.737v25.227h-20.662v-25.226c0-1.279-.293-2.565-.854-3.729l-4.571-9.457-1.433-22.656c-.284-4.501-4.04-8.027-8.55-8.027h-22.994c-4.514 0-8.27 3.529-8.551 8.027l-1.433 22.656-4.567 9.448c-.561 1.157-.858 2.45-.858 3.737v25.227h-3.263c-2.492 0-4.835.971-6.597 2.733l-35.695 35.695c-1.762 1.762-2.733 4.105-2.733 6.597v3.264h-25.227c-1.288 0-2.58.297-3.729.854l-9.457 4.571-22.649 1.433c-4.505.28-8.034 4.037-8.034 8.55v22.994c0 4.51 3.526 8.267 8.027 8.551l22.656 1.433 9.467 4.576c1.153.556 2.439.849 3.719.849h25.227v20.662h-25.227c-1.288 0-2.58.297-3.729.854l-9.457 4.571-22.656 1.433c-4.501.285-8.027 4.041-8.027 8.551v22.994c0 4.51 3.526 8.267 8.027 8.551l22.657 1.433 9.447 4.566c1.158.562 2.45.858 3.737.858h25.227v20.661h-25.226c-1.287 0-2.579.297-3.729.854l-9.456 4.57-22.657 1.433c-4.501.287-8.027 4.043-8.027 8.554v22.994c0 4.51 3.526 8.267 8.027 8.551l22.657 1.433 9.447 4.566c1.157.561 2.45.858 3.737.858h25.227v20.662h-25.226c-1.279 0-2.565.293-3.729.854l-9.455 4.571-22.657 1.433c-4.502.285-8.028 4.041-8.028 8.551v22.994c0 4.51 3.526 8.266 8.027 8.551l22.656 1.433 9.448 4.567c1.157.561 2.45.858 3.737.858h25.227v3.264c0 2.492.971 4.834 2.733 6.597l35.695 35.695c1.762 1.762 4.105 2.733 6.597 2.733h3.263v25.227c0 1.288.297 2.58.854 3.729l4.571 9.457 1.433 22.649c.281 4.505 4.038 8.034 8.551 8.034h22.994c4.51 0 8.267-3.526 8.551-8.027l1.433-22.656 4.576-9.467c.556-1.153.849-2.439.849-3.719v-25.227h20.662v25.227c0 1.288.297 2.58.854 3.729l4.571 9.457 1.433 22.656c.285 4.501 4.041 8.027 8.551 8.027h22.994c4.51 0 8.267-3.526 8.551-8.027l1.433-22.657 4.566-9.447c.562-1.158.858-2.45.858-3.737v-25.227h20.661v25.227c0 1.287.297 2.579.854 3.729l4.57 9.456 1.433 22.657c.285 4.501 4.041 8.027 8.551 8.027h22.994c4.51 0 8.267-3.526 8.551-8.027l1.433-22.657 4.566-9.447c.561-1.157.858-2.45.858-3.737v-25.227h20.662v25.227c0 1.279.293 2.565.854 3.729l4.571 9.455 1.433 22.657c.285 4.501 4.041 8.027 8.551 8.027h22.994c4.51 0 8.266-3.526 8.551-8.027l1.433-22.656 4.567-9.448c.561-1.157.858-2.45.858-3.737v-25.227h3.264c2.492 0 4.834-.971 6.597-2.733l3.402-3.402c2.929-2.929 2.929-7.678 0-10.606-2.929-2.929-7.678-2.929-10.606 0l-1.741 1.741c-13.253 0-265.75 0-279.062 0l-32.374-32.374v-279.064l32.374-32.374h279.062l32.374 32.374v279.062l-5.86 5.86c-2.929 2.929-2.929 7.678 0 10.606 2.929 2.929 7.678 2.929 10.606 0l7.521-7.521c1.762-1.762 2.733-4.105 2.733-6.597v-3.264h25.227c1.288 0 2.58-.297 3.729-.854l9.457-4.571 22.656-1.433c4.501-.285 8.027-4.041 8.027-8.551v-22.994c0-4.51-3.526-8.267-8.027-8.551l-22.657-1.433-9.466-4.576c-1.153-.556-2.439-.849-3.719-.849h-25.227v-20.662h25.227c1.288 0 2.58-.297 3.729-.854l9.456-4.57 22.657-1.433c4.501-.285 8.027-4.041 8.027-8.551v-22.993c0-4.51-3.526-8.267-8.027-8.551l-22.657-1.433-9.447-4.566c-1.158-.562-2.45-.858-3.737-.858h-25.227v-20.661h25.227c1.287 0 2.579-.297 3.729-.854l9.456-4.57 22.657-1.433c4.501-.285 8.027-4.041 8.027-8.551v-22.994c0-4.51-3.526-8.267-8.028-8.551l-22.655-1.433-9.448-4.567c-1.157-.561-2.45-.858-3.737-.858h-25.227v-20.662h25.227c1.279 0 2.565-.293 3.729-.854l9.457-4.571 22.656-1.433c4.501-.285 8.027-4.041 8.027-8.551v-22.994c-.001-4.516-3.53-8.273-8.028-8.553zm-352.247 351.666c-.489 1.005-.773 2.082-.845 3.204l-1.132 17.888h-10.918l-1.132-17.893c-.071-1.108-.352-2.178-.837-3.184l-3.876-8.02h22.609zm4.47-23.004h-23.812v-10h23.812zm69.992 23.025c-.482 1-.763 2.069-.833 3.182l-1.132 17.889h-10.919l-1.131-17.893c-.071-1.108-.352-2.178-.837-3.184l-3.876-8.02h22.608zm4.481-23.025h-23.812v-10h23.812zm69.993 23.025c-.487 1.009-.768 2.087-.833 3.182l-1.133 17.889h-10.919l-1.13-17.866c-.067-1.117-.348-2.195-.838-3.21l-3.876-8.02h22.608zm4.481-23.025h-23.812v-10h23.812zm69.992 23.025c-.482 1-.763 2.07-.834 3.182l-1.132 17.889h-10.918l-1.132-17.893c-.071-1.109-.352-2.178-.836-3.184l-3.876-8.02h22.608zm4.481-23.025h-23.812v-10h23.812zm-343.524-301.178c-1.005-.489-2.082-.773-3.204-.845l-17.888-1.132v-10.918l17.893-1.132c1.108-.071 2.178-.352 3.184-.837l8.02-3.876v22.608zm23.004 4.47v-23.812h10v23.812zm-23.025 69.992c-1-.482-2.069-.763-3.182-.833l-17.889-1.132v-10.919l17.893-1.131c1.108-.071 2.178-.352 3.184-.837l8.02-3.876v22.607zm23.025 4.481v-23.812h10v23.812zm-23.025 69.993c-1.009-.487-2.087-.768-3.182-.833l-17.889-1.133v-10.919l17.866-1.13c1.117-.067 2.195-.348 3.21-.838l8.02-3.876v22.607zm23.025 4.481v-23.812h10v23.812zm-23.025 69.992c-1-.482-2.07-.763-3.182-.834l-17.889-1.132v-10.918l17.893-1.132c1.109-.071 2.178-.352 3.184-.836l8.019-3.876v22.608zm23.025 4.481v-23.812h10v23.812zm301.19-343.545c.482-1 .763-2.069.833-3.182l1.132-17.889h10.918l1.132 17.893c.071 1.108.352 2.178.837 3.184l3.876 8.02h-22.608zm-74.474 0c.487-1.009.768-2.087.833-3.182l1.132-17.889h10.919l1.13 17.866c.067 1.117.348 2.195.838 3.21l3.876 8.02h-22.607zm-74.474 0c.482-1 .763-2.07.834-3.183l1.132-17.888h10.919l1.132 17.893c.071 1.109.352 2.178.836 3.184l3.876 8.02h-22.607zm-74.473 0c.482-1 .763-2.07.834-3.182l1.132-17.889h10.918l1.132 17.893c.071 1.118.355 2.194.837 3.184l3.876 8.02h-22.608zm-4.481 33.025v-10h23.812v10zm74.473 0v-10h23.812v10zm74.474 0v-10h23.812v10zm74.473 0v-10h23.812v10zm120.125 291.19c1 .482 2.069.763 3.182.833l17.889 1.132v10.918l-17.893 1.132c-1.108.071-2.178.352-3.184.837l-8.02 3.876v-22.608zm-23.025-4.482v23.812h-10v-23.812zm23.025-69.992c1.009.487 2.087.768 3.182.833l17.889 1.132v10.919l-17.866 1.13c-1.117.067-2.195.348-3.21.838l-8.02 3.876v-22.607zm-23.025-4.481v23.812h-10v-23.812zm23.025-69.993c1 .482 2.07.763 3.183.834l17.888 1.132v10.919l-17.893 1.132c-1.109.071-2.178.352-3.184.836l-8.02 3.876v-22.607zm-23.025-4.481v23.812h-10v-23.812zm-10-74.473h10v23.812h-10zm54.096 17.365-17.893 1.132c-1.118.071-2.194.355-3.184.837l-8.02 3.876v-22.608l8.025 3.879c1 .482 2.07.763 3.182.834l17.89 1.132z"/><path fill="#fff" d="m230.669 193.596c0 4.142 3.358 7.5 7.5 7.5h35.661c4.142 0 7.5-3.358 7.5-7.5s-3.358-7.5-7.5-7.5h-35.661c-4.142 0-7.5 3.358-7.5 7.5z"/></g></svg>
