<!-- icon666.com - MILLIONS vector ICONS FREE --><svg id="Line" enable-background="new 0 0 32 32" viewBox="0 0 32 32" xmlns="http://www.w3.org/2000/svg"><path d="m14 24c0-.7.4-1.4 1-1.7v-5.3c0-.6.4-1 1-1s1 .4 1 1v5.3c.6.3 1 1 1 1.7 0 1.1-.9 2-2 2s-2-.9-2-2z"></path><path d="m22 7c0-.6.4-1 1-1h2c.6 0 1 .4 1 1s-.4 1-1 1h-2c-.6 0-1-.4-1-1z"></path><path d="m22 12c0-.6.4-1 1-1h2c.6 0 1 .4 1 1s-.4 1-1 1h-2c-.6 0-1-.4-1-1z"></path><path d="m22 17c0-.6.4-1 1-1h2c.6 0 1 .4 1 1s-.4 1-1 1h-2c-.6 0-1-.4-1-1z"></path><path d="m6 7c0-.6.4-1 1-1h2c.6 0 1 .4 1 1s-.4 1-1 1h-2c-.6 0-1-.4-1-1z"></path><path d="m6 12c0-.6.4-1 1-1h2c.6 0 1 .4 1 1s-.4 1-1 1h-2c-.6 0-1-.4-1-1z"></path><path d="m6 17c0-.6.4-1 1-1h2c.6 0 1 .4 1 1s-.4 1-1 1h-2c-.6 0-1-.4-1-1z"></path><path d="m16 30c3.3 0 6-2.7 6-6 0-1.7-.7-3.3-2-4.4v-13.6c0-2.2-1.8-4-4-4s-4 1.8-4 4v13.6c-1.3 1.1-2 2.7-2 4.4 0 3.3 2.7 6 6 6zm-2.4-9.2c.2-.2.4-.5.4-.8v-14c0-1.1.9-2 2-2s2 .9 2 2v14c0 .3.1.6.4.8 1 .8 1.6 1.9 1.6 3.2 0 2.2-1.8 4-4 4s-4-1.8-4-4c0-1.3.6-2.4 1.6-3.2z"></path></svg>