<svg enable-background="new 0 0 89.471 89.471" height="512" viewBox="0 0 89.471 89.471" width="512" xmlns="http://www.w3.org/2000/svg"><g fill="#d0d4d7"><path d="m57.305 38.015c5.433-2.312 12.515-3.722 22.897-3.429-4.971-6.32-9.416-10.933-12.079-15.568-7.362 4.245-12.755 8.639-16.771 13.091-1.85-.97-3.919-1.568-6.131-1.643.691-5.816 2.974-12.63 8.46-21.527-5.966 0-11.928 0-17.894 0-1.249 10.583-.433 17.934 1.353 23.696-1.843 1.156-3.389 2.724-4.542 4.574-4.685-3.411-9.423-8.206-14.319-14.97-2.455 5.483-4.892 9.169-9.015 12.333 8.485 6.335 15.292 9.359 21.208 10.715.089 2.23.698 4.298 1.689 6.152-5.433 2.312-12.515 3.718-22.897 3.425 4.967 6.32 9.412 10.933 12.082 15.568 7.355-4.245 12.751-8.632 16.763-13.084 1.85.97 3.919 1.568 6.138 1.643-.691 5.816-2.974 12.63-8.46 21.527h17.894c1.253-10.583.433-17.934-1.356-23.696 1.847-1.156 3.389-2.724 4.545-4.574 4.688 3.407 9.43 8.206 14.323 14.96 2.455-5.479 4.889-9.169 9.015-12.329-8.485-6.335-15.289-9.355-21.212-10.715-.092-2.223-.7-4.292-1.691-6.149zm-12.569 11.194c-2.469 0-4.474-2.008-4.474-4.474s2.004-4.474 4.474-4.474c2.466 0 4.474 2.008 4.474 4.474-.001 2.466-2.009 4.474-4.474 4.474z"/><path d="m82.314 0h-75.156c-3.937 0-7.158 3.221-7.158 7.158v75.156c0 3.937 3.221 7.158 7.158 7.158h75.156c3.937 0 7.158-3.221 7.158-7.158v-75.156c-.001-3.937-3.222-7.158-7.158-7.158zm-76.051 3.579c1.485 0 2.684 1.199 2.684 2.684s-1.199 2.684-2.684 2.684-2.684-1.199-2.684-2.684 1.199-2.684 2.684-2.684zm0 82.313c-1.485 0-2.684-1.199-2.684-2.684s1.199-2.684 2.684-2.684 2.684 1.199 2.684 2.684c0 1.486-1.199 2.684-2.684 2.684zm38.473-1.789c-21.724 0-39.367-17.612-39.367-39.367s17.643-39.368 39.367-39.368 39.367 17.612 39.367 39.368-17.644 39.367-39.367 39.367zm38.472 1.789c-1.485 0-2.684-1.199-2.684-2.684s1.199-2.684 2.684-2.684 2.684 1.199 2.684 2.684c0 1.486-1.198 2.684-2.684 2.684zm0-76.945c-1.485 0-2.684-1.199-2.684-2.684s1.199-2.684 2.684-2.684 2.684 1.199 2.684 2.684-1.198 2.684-2.684 2.684z"/></g></svg>