<svg enable-background="new 0 0 477.867 477.867" height="512" viewBox="0 0 477.867 477.867" width="512" xmlns="http://www.w3.org/2000/svg"><g fill="#f1f1f1"><path d="m341.333 85.333h-290.133c-28.277 0-51.2 22.923-51.2 51.2v290.133c0 28.277 22.923 51.2 51.2 51.2h290.133c28.277 0 51.2-22.923 51.2-51.2v-290.133c0-28.277-22.923-51.2-51.2-51.2zm17.067 341.334c0 9.426-7.641 17.067-17.067 17.067h-290.133c-9.426 0-17.067-7.641-17.067-17.067v-290.134c0-9.426 7.641-17.067 17.067-17.067h290.133c9.426 0 17.067 7.641 17.067 17.067z"/><path d="m426.667 0h-307.2c-28.277 0-51.2 22.923-51.2 51.2 0 9.426 7.641 17.067 17.067 17.067s17.066-7.641 17.066-17.067 7.641-17.067 17.067-17.067h307.2c9.426 0 17.067 7.641 17.067 17.067v307.2c0 9.426-7.641 17.067-17.067 17.067s-17.067 7.641-17.067 17.067 7.641 17.067 17.067 17.067c28.277 0 51.2-22.923 51.2-51.2v-307.201c0-28.277-22.923-51.2-51.2-51.2z"/></g></svg>