<svg enable-background="new 0 0 426.667 426.667" height="512" viewBox="0 0 426.667 426.667" width="512" xmlns="http://www.w3.org/2000/svg"><path d="m213.333 0c-117.866 0-213.333 95.467-213.333 213.333s95.467 213.333 213.333 213.333 213.334-95.466 213.334-213.333-95.467-213.333-213.334-213.333zm-170.666 213.333c0-94.293 76.373-170.667 170.667-170.667 39.467 0 75.627 13.547 104.533 35.947l-239.254 239.254c-22.4-28.907-35.946-65.067-35.946-104.534zm170.666 170.667c-39.467 0-75.627-13.547-104.533-35.947l239.253-239.253c22.4 28.907 35.947 65.067 35.947 104.533 0 94.294-76.373 170.667-170.667 170.667z" fill="#ff4a46"/></svg>