<svg enable-background="new 0 0 950.002 950.002" height="512" viewBox="0 0 950.002 950.002" width="512" xmlns="http://www.w3.org/2000/svg"><g fill="#fff"><path d="m949.869 741.307c-.072-2.064-.145-4.139-.217-6.221-.075-2.082-.152-4.17-.229-6.268l-.06-1.57-.03-.787-.008-.197-.02-1.76-.006-.082-.025-.326-.201-2.607c-.271-3.479-.542-6.973-.813-10.467l-.207-2.645-.312-3.43c-.216-2.281-.431-4.561-.646-6.836-.223-2.271-.447-4.539-.669-6.799-.115-1.129-.229-2.256-.343-3.381-.138-1.041-.276-2.08-.414-3.119-1.139-8.242-2.156-16.342-3.608-24.129-.686-3.896-1.319-7.727-2.031-11.461-.777-3.725-1.537-7.367-2.277-10.914-1.402-7.098-3.163-13.727-4.647-19.855-.38-1.529-.752-3.029-1.115-4.492-.404-1.457-.8-2.877-1.185-4.264-.782-2.766-1.523-5.391-2.221-7.855-.71-2.461-1.336-4.771-1.99-6.889-.674-2.111-1.292-4.051-1.851-5.803-.829-2.574-1.528-4.742-2.079-6.455-.815-2.529-3.487-3.951-6.043-3.223l-160.613 45.771c-2.447.697-3.964 3.135-3.498 5.637.174.934.373 2.004.595 3.201.229 1.205.483 2.541.759 3.994.261 1.457.466 3.053.729 4.74.258 1.689.532 3.488.821 5.383.141.947.308 1.912.439 2.91.114 1 .23 2.025.35 3.07.447 4.184 1.115 8.67 1.413 13.48.197 2.393.401 4.852.609 7.361.156 2.518.234 5.098.368 7.709.348 5.213.282 10.641.382 16.115l.023 2.039-.072 1.805c-.041 1.203-.083 2.408-.124 3.617-.032 1.203-.065 2.41-.098 3.619l-.038 1.807-.11 2.602c-.148 3.502-.299 7.002-.448 10.49l-.111 2.613-.015.326-.003.08c.002.393-.03-3.111-.02-1.598l-.013.129-.048.516-.095 1.031c-.124 1.373-.248 2.738-.371 4.102-.119 1.359-.238 2.715-.355 4.062-.16 1.342-.319 2.678-.479 4.004-.341 2.65-.551 5.275-.973 7.832-.37 2.559-.734 5.072-1.09 7.535-.426 2.445-.842 4.838-1.246 7.166-.366 2.33-.856 4.574-1.292 6.746-.456 2.168-.819 4.273-1.292 6.271-.461 1.998-.903 3.91-1.324 5.73-.208.898-.41 1.773-.606 2.625-.202.73-.397 1.438-.588 2.125-.112.42-.218.814-.327 1.221h196.439c2.633 0 4.826-2.066 4.926-4.697.001-.016.001-.031.002-.047.163-3.658.331-7.414.503-11.254.073-3.836.147-7.756.224-11.742.112-3.982-.009-8.029-.02-12.121-.023-2.045-.044-4.102-.066-6.17z"/><path d="m898.791 535.129c2.635-1.061 3.837-4.113 2.622-6.68-.54-1.141-1.171-2.475-1.886-3.984-.675-1.418-1.421-2.988-2.231-4.697-1.049-2.137-2.183-4.447-3.396-6.916-1.222-2.459-2.521-5.076-3.893-7.834-.695-1.434-1.378-2.617-2.093-3.963-.712-1.316-1.441-2.662-2.186-4.037-1.497-2.744-3.028-5.613-4.671-8.551-1.697-2.906-3.451-5.912-5.254-9.002-.904-1.541-1.821-3.104-2.749-4.684-.971-1.556-1.954-3.131-2.947-4.723-1.997-3.171-4.038-6.412-6.112-9.706-4.377-6.45-8.734-13.196-13.597-19.761-1.194-1.653-2.395-3.312-3.598-4.976l-1.81-2.494-1.884-2.453c-2.52-3.263-5.05-6.537-7.58-9.812-2.575-3.237-5.239-6.406-7.85-9.587-1.32-1.58-2.599-3.183-3.946-4.727-1.351-1.539-2.697-3.074-4.04-4.603-1.343-1.523-2.68-3.043-4.011-4.554-1.323-1.517-2.657-3.008-4.033-4.45-2.724-2.901-5.414-5.766-8.06-8.585-2.65-2.81-5.394-5.451-8.005-8.091-2.63-2.626-5.186-5.205-7.796-7.6-2.581-2.416-5.093-4.766-7.521-7.04-2.418-2.279-4.887-4.349-7.187-6.399-2.319-2.028-4.542-3.971-6.656-5.819-2.168-1.787-4.225-3.481-6.157-5.073-1.934-1.586-3.743-3.07-5.416-4.442-1.676-1.367-3.279-2.552-4.692-3.657-2.058-1.579-3.796-2.913-5.177-3.973-2.105-1.616-5.106-1.271-6.798.776l-86.204 104.346c-1.625 1.968-1.486 4.844.327 6.64.721.712 1.553 1.536 2.489 2.463.897.901 1.925 1.855 2.979 2.969 1.054 1.113 2.192 2.318 3.409 3.604 1.219 1.28 2.515 2.642 3.88 4.078 1.317 1.482 2.702 3.043 4.147 4.67 1.427 1.642 2.987 3.272 4.471 5.09 1.497 1.8 3.044 3.66 4.636 5.573 1.621 1.878 3.168 3.917 4.77 5.977 1.585 2.074 3.279 4.119 4.871 6.312 1.593 2.186 3.212 4.408 4.851 6.658.836 1.107 1.629 2.262 2.41 3.434.79 1.164 1.584 2.332 2.381 3.506.798 1.168 1.601 2.342 2.404 3.52.802 1.178 1.537 2.41 2.312 3.615 1.522 2.432 3.1 4.828 4.596 7.277 1.458 2.473 2.917 4.947 4.369 7.41l1.09 1.838 1.021 1.877c.682 1.246 1.361 2.49 2.038 3.727 2.795 4.889 5.154 9.93 7.623 14.666 1.13 2.428 2.241 4.814 3.329 7.152.544 1.164 1.082 2.316 1.614 3.453.493 1.158.979 2.301 1.459 3.43.965 2.246 1.903 4.434 2.812 6.547.839 2.143 1.649 4.213 2.427 6.199.39.992.77 1.963 1.142 2.912.352.926.788 1.928 1.022 2.699.555 1.619 1.08 3.156 1.574 4.6.504 1.434.977 2.775 1.413 4.016.573 1.711 1.099 3.279 1.574 4.697.529 1.584.995 2.984 1.395 4.184.898 2.693 3.88 4.066 6.515 3.008z"/><path d="m459.808 348.748c1.306.178 2.75.375 4.324.59 1.564.272 3.256.567 5.063.882 1.804.31 3.724.639 5.747.987 1.758.292 3.579.716 5.472 1.112l54.404-111.282c-2.697-.421-5.372-.839-7.993-1.248-1.796-.267-3.564-.574-5.325-.794-1.761-.213-3.501-.424-5.218-.632-3.429-.407-6.764-.804-9.989-1.187-3.234-.277-6.359-.545-9.358-.802-3-.23-5.861-.533-8.6-.663-2.734-.134-5.328-.262-7.765-.382-2.435-.115-4.713-.222-6.818-.322-2.107-.034-4.043-.065-5.792-.093-2.46-.03-4.548-.055-6.222-.075-2.655-.032-4.852 2.043-4.979 4.695l-4.961 103.577c-.122 2.552 1.719 4.774 4.25 5.121 1.078.148 2.335.321 3.76.516z"/><path d="m606.027 405.781c1.462 1.063 2.848 2.071 4.15 3.02 1.304.934 2.525 1.808 3.654 2.617.489.336 1.296.948 1.955 1.438.679.507 1.326.99 1.939 1.448 1.339.999 2.521 1.881 3.533 2.636 2.276 1.698 5.506 1.124 7.065-1.25l71.03-108.196c1.56-2.374.803-5.567-1.661-6.98-1.096-.628-2.375-1.362-3.823-2.193-.665-.382-1.365-.783-2.101-1.205-.801-.453-1.638-.927-2.511-1.421-2.021-1.114-4.207-2.317-6.542-3.604-2.336-1.273-4.823-2.627-7.443-4.056-2.497-1.251-5.121-2.566-7.86-3.939-2.75-1.342-5.556-2.835-8.565-4.19-2.995-1.372-6.091-2.791-9.273-4.25-3.161-1.492-6.497-2.847-9.883-4.269-3.4-1.392-6.821-2.914-10.394-4.257-.905-.343-1.824-.69-2.736-1.036l-30.642 132.998c1.694 1.064 3.29 2.192 4.862 3.21 1.83 1.213 3.58 2.374 5.246 3.479z"/><path d="m364.434 348.206c1.372-.181 2.719-.405 4.064-.547 1.345-.136 2.674-.271 3.984-.405 2.615-.271 5.158-.535 7.619-.791 2.468-.165 4.853-.325 7.142-.479 1.142-.078 2.26-.154 3.353-.229 1.09-.073 2.182-.166 3.118-.167 1.929-.051 3.76-.098 5.479-.143 1.714-.054 3.316-.105 4.8-.152 1.829-.012 3.509-.023 5.025-.033 1.67-.009 3.146-.017 4.408-.024 2.84-.015 5.072-2.42 4.886-5.254l-6.394-97.57c-.187-2.834-2.713-4.927-5.53-4.571-1.253.158-2.716.343-4.373.552-1.536.195-3.237.412-5.089.648-2.188.325-4.554.675-7.083 1.05-2.521.384-5.205.793-8.034 1.224-1.448.204-2.781.475-4.18.739-1.395.266-2.822.539-4.279.817-2.909.562-5.938 1.148-9.076 1.754-3.113.709-6.333 1.443-9.642 2.196-1.651.379-3.325.764-5.019 1.154-1.692.396-3.389.88-5.11 1.325-3.435.915-6.942 1.85-10.51 2.8-3.532 1.065-7.123 2.147-10.757 3.243-1.812.561-3.643 1.09-5.463 1.689-1.812.619-3.637 1.24-5.467 1.865-1.827.626-3.661 1.254-5.5 1.885-1.84.626-3.683 1.255-5.501 1.972-3.645 1.391-7.304 2.788-10.963 4.185-3.643 1.426-7.226 3.006-10.817 4.501-1.79.763-3.585 1.499-5.354 2.282-1.757.811-3.508 1.619-5.253 2.425-1.741.806-3.476 1.61-5.201 2.409-1.725.798-3.443 1.584-5.113 2.451-3.352 1.692-6.663 3.364-9.919 5.008-3.257 1.633-6.361 3.435-9.444 5.094-3.069 1.69-6.087 3.302-8.934 5.039-2.863 1.698-5.648 3.351-8.342 4.949-2.702 1.576-5.208 3.278-7.664 4.816-2.439 1.563-4.776 3.062-6.999 4.487-2.175 1.493-4.239 2.909-6.178 4.24-1.934 1.332-3.744 2.578-5.418 3.731-1.672 1.153-3.151 2.296-4.514 3.284-1.847 1.364-3.424 2.528-4.7 3.47-2.131 1.573-2.631 4.544-1.141 6.735l40.515 59.566c1.442 2.12 4.261 2.785 6.494 1.524 1.029-.58 2.245-1.267 3.632-2.049 1.209-.669 2.517-1.459 3.994-2.228 1.476-.77 3.072-1.6 4.777-2.488 1.7-.889 3.51-1.835 5.417-2.832 1.94-.93 3.979-1.908 6.107-2.928 2.138-.996 4.307-2.137 6.646-3.132 2.321-1.019 4.721-2.072 7.189-3.155 2.443-1.125 5.031-2.108 7.649-3.158 2.632-1.02 5.268-2.174 8.029-3.149 2.749-.991 5.545-1.998 8.374-3.018 1.403-.533 2.847-.984 4.294-1.446 1.444-.465 2.896-.932 4.353-1.401 1.454-.47 2.914-.942 4.378-1.416 1.472-.447 2.965-.847 4.448-1.275 2.979-.824 5.938-1.738 8.938-2.504 3.002-.743 6.004-1.486 8.994-2.225 1.484-.395 2.99-.704 4.489-1.013 1.496-.315 2.988-.629 4.475-.942 1.482-.315 2.959-.628 4.429-.94 1.473-.294 2.954-.521 4.415-.784 2.922-.507 5.808-1.009 8.648-1.501 2.85-.393 5.653-.781 8.399-1.16z"/><path d="m88.175 425.22c-1.062 1.502-2.128 3.011-3.199 4.526-1.068 1.514-2.14 3.034-3.216 4.559-1.071 1.527-2.073 3.111-3.115 4.669-2.054 3.137-4.156 6.25-6.168 9.422-1.965 3.199-3.93 6.398-5.887 9.585l-1.46 2.386-1.386 2.425c-.921 1.612-1.839 3.221-2.754 4.822-3.74 6.353-6.989 12.847-10.291 19.015-1.537 3.145-3.049 6.238-4.529 9.266-.734 1.512-1.461 3.01-2.178 4.488-.675 1.498-1.341 2.979-1.999 4.441-1.31 2.918-2.584 5.758-3.817 8.504-1.15 2.781-2.262 5.467-3.329 8.045-1.046 2.586-2.103 5.033-3.004 7.408-.889 2.377-1.733 4.633-2.527 6.752-.79 2.117-1.529 4.098-2.212 5.93-.631 1.85-1.21 3.549-1.734 5.084-.68 2.018-1.264 3.75-1.741 5.168-.845 2.506.44 5.225 2.91 6.172l37.71 14.457c2.4.92 5.103-.154 6.212-2.473.55-1.148 1.207-2.523 1.962-4.102.626-1.301 1.318-2.742 2.073-4.311.802-1.547 1.669-3.217 2.596-5.004.924-1.781 1.906-3.68 2.942-5.68 1.044-1.994 2.246-4.039 3.439-6.199 1.208-2.148 2.467-4.387 3.77-6.705 1.373-2.273 2.792-4.625 4.252-7.043.727-1.207 1.464-2.43 2.21-3.668.785-1.215 1.58-2.443 2.383-3.688 1.606-2.48 3.247-5.012 4.916-7.59 3.546-5.02 7.014-10.307 10.933-15.406.957-1.289 1.918-2.582 2.882-3.879l1.445-1.947 1.514-1.904c2.016-2.539 4.04-5.086 6.064-7.633 2.061-2.516 4.2-4.967 6.279-7.439 1.054-1.227 2.066-2.479 3.145-3.672 1.08-1.191 2.156-2.379 3.228-3.562 1.07-1.182 2.135-2.359 3.195-3.531 1.05-1.178 2.11-2.335 3.211-3.444 2.166-2.243 4.306-4.459 6.411-6.64 2.101-2.177 4.294-4.197 6.364-6.239 2.086-2.027 4.104-4.027 6.182-5.86 2.044-1.86 4.032-3.669 5.956-5.42 1.908-1.761 3.874-3.333 5.69-4.911 1.828-1.557 3.58-3.049 5.246-4.468 1.636-1.295 3.188-2.523 4.646-3.679 1.45-1.154 2.807-2.235 4.062-3.235.576-.476 1.356-1.046 2.015-1.547.676-.511 1.321-.997 1.933-1.458 1.333-1.007 2.51-1.895 3.518-2.655 2.267-1.711 2.618-4.973.774-7.133l-42.935-50.299c-1.844-2.16-5.121-2.325-7.166-.355-.909.876-1.972 1.899-3.174 3.058-.552.531-1.134 1.092-1.744 1.679-.621.603-1.212 1.152-1.982 1.939-1.472 1.485-3.063 3.092-4.764 4.808-1.692 1.717-3.493 3.544-5.392 5.47-1.765 1.912-3.621 3.922-5.557 6.019-1.912 2.113-3.974 4.242-5.969 6.576-2.003 2.322-4.073 4.723-6.202 7.19-2.155 2.438-4.24 5.057-6.385 7.714-2.129 2.671-4.373 5.336-6.514 8.16-2.135 2.824-4.305 5.695-6.501 8.603-1.116 1.441-2.183 2.929-3.237 4.439z"/><path d="m10.155 601.572c-.251 1.236-.545 2.684-.878 4.32-.305 1.502-.643 3.166-1.011 4.977-.361 1.852-.714 4.039-1.108 6.271-.388 2.254-.8 4.652-1.234 7.18-.21 1.26-.45 2.562-.649 3.875-.177 1.305-.357 2.639-.542 4-.704 5.453-1.631 11.32-2.165 17.588-.31 3.123-.628 6.33-.953 9.609-.268 3.283-.447 6.645-.678 10.053-.54 6.811-.639 13.875-.864 21.021l-.073 2.686.013 2.697c.01 1.801.02 3.605.03 5.414.011 1.807.022 3.617.032 5.428l.017 2.717.104 2.719c.147 3.617.294 7.236.441 10.84l.111 2.695.034.873.048.65.096 1.299c.128 1.732.255 3.459.382 5.18s.254 3.434.379 5.139c.173 1.777.344 3.549.516 5.309.173 1.758.345 3.504.516 5.24.086.865.172 1.729.258 2.588.107.846.214 1.689.32 2.529.426 3.35.845 6.645 1.255 9.871.495 3.211.979 6.354 1.449 9.412.44 3.057 1.007 6.014 1.528 8.873.043.229.086.455.128.682.435 2.338 2.469 4.031 4.846 4.031h13.291c2.838 0 5.09-2.389 4.923-5.221-.045-.756-.091-1.52-.142-2.291-.166-2.756-.366-5.598-.43-8.531-.096-2.928-.194-5.936-.295-9.01-.019-3.072-.038-6.211-.057-9.404-.005-.797-.01-1.598-.015-2.4.017-.791.035-1.586.053-2.385.035-1.592.07-3.197.106-4.812.035-1.611.071-3.234.107-4.865.08-1.707.159-3.424.24-5.146.08-1.723.161-3.453.241-5.188l.061-1.303.03-.652.004-.082c0-.207.004.191.006.123l.012-.158.025-.314.202-2.523c.268-3.365.537-6.74.807-10.117l.206-2.527.291-2.521c.194-1.678.387-3.354.58-5.027.192-1.672.384-3.34.575-5.002l.285-2.488.369-2.471c1.012-6.57 1.872-13.033 3.132-19.221.591-3.1 1.12-6.15 1.727-9.119.661-2.957 1.307-5.85 1.936-8.666 1.164-5.641 2.673-10.885 3.901-15.746.315-1.213.623-2.402.924-3.562.318-1.143.661-2.225.977-3.297.637-2.133 1.242-4.156 1.81-6.059.581-1.918 1.058-3.633 1.614-5.354.583-1.756 1.117-3.365 1.601-4.82.526-1.586.991-2.986 1.389-4.186.895-2.693-.668-5.58-3.412-6.311l-33.319-8.885c-2.745-.733-5.537.992-6.103 3.775z"/><path d="m387.317 774.27c10.84 5.299 22.323 7.811 33.628 7.811 28.378 0 55.65-15.811 68.953-43.023 2.562-5.238 4.545-11.021 5.835-16.467l77.577-336.717 29.544-128.233 18.303-79.437c2.13-9.245-5.224-15.543-12.602-15.543-4.319 0-8.647 2.159-11.087 7.148l-37.245 76.183-54.944 112.386-153.175 313.311c-18.603 38.051-2.837 83.979 35.213 102.581zm36.472-108.434c20.759 0 37.588 16.828 37.588 37.588 0 20.758-16.829 37.588-37.588 37.588s-37.588-16.83-37.588-37.588c0-20.762 16.829-37.588 37.588-37.588z"/></g></svg>